<svg xmlns="http://www.w3.org/2000/svg" width="242.02" height="97" viewBox="0 0 242.02 97">
  <g id="connect_wallet" data-name="connect wallet" transform="translate(-1306.475 -82.348)">
    <text id="CONNECT_WALLET-2" data-name="CONNECT WALLET" transform="matrix(1, 0, 0, 1, 1306.495, 82.348)" fill="#0071ab" font-size="20.239" font-family="SegoeUI-Bold, Segoe UI" font-weight="700" letter-spacing="0.04em"><tspan x="0" y="22">CONNECT WALLET</tspan></text>
    <path id="Color_Overlay" data-name="Color Overlay" d="M1313.9,102.49a6.811,6.811,0,0,1-3.714-1.083,8.053,8.053,0,0,1-3.714-6.79,7.6,7.6,0,0,1,1.032-3.9,7.729,7.729,0,0,1,2.8-2.813,7.466,7.466,0,0,1,3.855-1.042,7.636,7.636,0,0,1,2.925.577,6.494,6.494,0,0,1,2.439,1.751,6.752,6.752,0,0,1,1.457,2.854l-3.522,1.073a3.256,3.256,0,0,0-1.214-1.538,3.529,3.529,0,0,0-2.145-.668,3.635,3.635,0,0,0-2.56.941,3.516,3.516,0,0,0-1.022,2.722,4.228,4.228,0,0,0,.486,2.074,3.34,3.34,0,0,0,1.3,1.336,3.531,3.531,0,0,0,1.761.455,3.48,3.48,0,0,0,1.579-.364,3.94,3.94,0,0,0,1.2-.9,2.755,2.755,0,0,0,.617-1.022l3.3,1.133a5.41,5.41,0,0,1-1.255,2.611,7.5,7.5,0,0,1-5.606,2.591Zm15.827,0a7.516,7.516,0,0,1-3.926-1.1,8.517,8.517,0,0,1-2.945-2.914,7.29,7.29,0,0,1-1.1-3.856,7.188,7.188,0,0,1,1.1-3.835,8.235,8.235,0,0,1,2.945-2.854,7.732,7.732,0,0,1,3.926-1.063,7.588,7.588,0,0,1,3.886,1.063,8.147,8.147,0,0,1,2.9,2.844,7.271,7.271,0,0,1,1.083,3.845,7.463,7.463,0,0,1-1.083,3.9,8.232,8.232,0,0,1-2.9,2.894A7.48,7.48,0,0,1,1329.729,102.49Zm-.121-4.048a3.96,3.96,0,0,0,1.973-.506,3.907,3.907,0,0,0,1.437-1.376,3.629,3.629,0,0,0,.536-1.943,3.491,3.491,0,0,0-.536-1.9,3.706,3.706,0,0,0-1.447-1.326,4.3,4.3,0,0,0-2.024-.476,3.885,3.885,0,0,0-1.913.476,3.456,3.456,0,0,0-1.346,1.316,3.711,3.711,0,0,0-.486,1.892,3.951,3.951,0,0,0,.5,1.973,3.592,3.592,0,0,0,1.356,1.376A3.839,3.839,0,0,0,1329.608,98.442Zm23.558-11.718-.121,15.624h-3.926l-6.375-8.6.081,8.581-3.926.142-.142-15.807,3.926.162,6.5,8.521.061-8.48Zm15.584,0-.121,15.624H1364.7l-6.375-8.6.081,8.581-3.926.142-.142-15.807,3.926.162,6.5,8.521.061-8.48Zm12.386,11.334v4.048l-10.686.243-.526-15.382,10.686-.344.283,4.048-6.841.081.081,1.6,5.687-.121.2,4.048-5.647.121.1,1.923Zm7.954,4.432a6.811,6.811,0,0,1-3.714-1.083,8.054,8.054,0,0,1-3.714-6.79,7.6,7.6,0,0,1,1.032-3.9,7.73,7.73,0,0,1,2.8-2.813,7.467,7.467,0,0,1,3.856-1.042,7.636,7.636,0,0,1,2.924.577,6.494,6.494,0,0,1,2.439,1.751,6.751,6.751,0,0,1,1.457,2.854l-3.522,1.073a3.256,3.256,0,0,0-1.214-1.538,3.529,3.529,0,0,0-2.145-.668,3.635,3.635,0,0,0-2.56.941,3.516,3.516,0,0,0-1.022,2.722,4.228,4.228,0,0,0,.486,2.074,3.341,3.341,0,0,0,1.3,1.336,3.532,3.532,0,0,0,1.761.455,3.48,3.48,0,0,0,1.579-.364,3.942,3.942,0,0,0,1.2-.9,2.755,2.755,0,0,0,.617-1.022l3.3,1.133A5.409,5.409,0,0,1,1394.7,99.9a7.5,7.5,0,0,1-5.606,2.591Zm16.151-11.678.041,11.5-4.007.182-.041-11.577-4.21.1-.283-4.048,12.71-.3.324,4.048Zm34.912-2.044-5.282,13.9h-4.9l-1.619-7.549-1.639,7.144h-5.08L1417.343,88.3l4.513-1.417,2.429,8.7,2.368-8.338h3.724l1.923,9.027,3.137-9.775Zm7.812,10.2-5.141-.02-1.3,3.218-4.048-1.66,6.638-13.54,4.048.04,4.756,14.37-4.048.971Zm-1.093-4.048-.971-3.643-1.457,3.623Zm16.738,3.42v4.048H1454.1V86.966h4.048V98.341Zm10.889,0v4.048h-9.512V86.966h4.048V98.341Zm12.386-.283v4.048l-10.686.243-.526-15.382,10.686-.344.283,4.048-6.841.081.081,1.6,5.687-.121.2,4.048-5.647.121.1,1.923Zm9.269-7.246.04,11.5-4.007.182-.041-11.577-4.21.1-.283-4.048,12.71-.3.324,4.048Z" fill="#fff"/>
  </g>
</svg>
