<svg xmlns="http://www.w3.org/2000/svg" width="242" height="103" viewBox="0 0 242 103">
  <g id="Ends_in" data-name="Ends in" transform="translate(-759.288 -166.311)">
    <text id="ENDS_IN-2" data-name="ENDS IN" transform="matrix(1, 0, 0, 1, 759.288, 166.311)" fill="#0071ab" font-size="24.652" font-family="SegoeUI-Bold, Segoe UI" font-weight="700" letter-spacing="0.04em"><tspan x="0" y="27">ENDS IN</tspan></text>
    <path id="Color_Overlay" data-name="Color Overlay" d="M773.167,185.085v4.93l-13.016.3-.641-18.736,13.016-.419.345,4.93-8.333.1.1,1.948,6.927-.148.247,4.93-6.878.148.123,2.342Zm18.982-13.805L792,190.311h-4.783l-7.766-10.477.1,10.453-4.783.173-.173-19.254,4.783.2,7.913,10.379.074-10.329Zm5.892.148a12.446,12.446,0,0,1,5.658,1.356,11.535,11.535,0,0,1,4.351,3.71,8.914,8.914,0,0,1,1.652,5.239,7.409,7.409,0,0,1-3.2,6.582q-3.2,2.169-8.628,2.169a37.108,37.108,0,0,1-4.29-.247l.2-17.873a11.818,11.818,0,0,1,2.132-.715A9.815,9.815,0,0,1,798.042,171.427Zm.444,13.855q5.867.123,5.867-4.314a3.555,3.555,0,0,0-.7-2.194,4.594,4.594,0,0,0-1.824-1.442,5.556,5.556,0,0,0-2.3-.505,4.606,4.606,0,0,0-1.035.1Zm18.711,5.226a9.933,9.933,0,0,1-4.018-.875,9.229,9.229,0,0,1-3.279-2.33l3.328-3.649a5.738,5.738,0,0,0,1.861,1.393,5.019,5.019,0,0,0,2.157.505,3.084,3.084,0,0,0,1.6-.37,1.04,1.04,0,0,0,.616-.863.759.759,0,0,0-.592-.715,4.421,4.421,0,0,0-1.528-.222,7.468,7.468,0,0,1-3.365-.764,6.36,6.36,0,0,1-2.465-2.108,5.2,5.2,0,0,1-.924-3.02,5.308,5.308,0,0,1,.961-3.106,6.582,6.582,0,0,1,2.589-2.169,8.028,8.028,0,0,1,3.55-.789,9.991,9.991,0,0,1,3.8.752,9.749,9.749,0,0,1,3.254,2.157l-2.786,3.772a7.529,7.529,0,0,0-4.388-1.7,3.6,3.6,0,0,0-1.578.32q-.666.32-.666.764,0,.468.789.7a6.626,6.626,0,0,0,1.874.234,9.5,9.5,0,0,1,3.525.616,5.425,5.425,0,0,1,2.441,1.824,4.818,4.818,0,0,1,.888,2.934,5.9,5.9,0,0,1-1.048,3.39,7.312,7.312,0,0,1-2.8,2.428A8.275,8.275,0,0,1,817.2,190.508Zm16.986-18.933h4.783l-.148,18.736h-4.783Zm24.258-.3-.148,19.032h-4.783l-7.766-10.477.1,10.453-4.783.173-.173-19.254,4.783.2,7.913,10.379.074-10.329Z" fill="#fff"/>
  </g>
</svg>
