<svg xmlns="http://www.w3.org/2000/svg" width="242" height="140" viewBox="0 0 242 140">
  <g id="Presale" transform="translate(-698.214 -104.181)">
    <text id="PRESALE-2" data-name="PRESALE" transform="matrix(1, 0, 0, 1, 698.214, 104.181)" fill="#509d3f" font-size="52.783" font-family="SegoeUI-Bold, Segoe UI" font-weight="700" letter-spacing="0.04em"><tspan x="0" y="57">PRESALE</tspan></text>
    <path id="Color_Overlay" data-name="Color Overlay" d="M711.832,114.855a19.849,19.849,0,0,1,8.709,1.953,16.776,16.776,0,0,1,6.519,5.384,12.928,12.928,0,0,1,2.454,7.706,13.777,13.777,0,0,1-2.164,7.5,15.421,15.421,0,0,1-5.938,5.437,17.326,17.326,0,0,1-8.261,2.006,21.3,21.3,0,0,1-3.167-.264l.264,10.609H699.692L698.636,118.5Q705.815,114.855,711.832,114.855Zm-2.059,20.058a6.754,6.754,0,0,0,2.481.475,7.484,7.484,0,0,0,3.246-.739,6.609,6.609,0,0,0,2.507-2.006,4.482,4.482,0,0,0,.95-2.745,5.552,5.552,0,0,0-1.9-4.3,6.478,6.478,0,0,0-7.5-.924Zm45.974,7.178a7.7,7.7,0,0,0,2.745,3.378,7.174,7.174,0,0,0,4.117,1.214V157.24a18.421,18.421,0,0,1-7.469-1.61,19.632,19.632,0,0,1-6.387-4.46,16.758,16.758,0,0,1-3.88-6.387l-1.425-.106.106,10.082H733l-.422-37.74a16.909,16.909,0,0,1,5.357-1.663,40.674,40.674,0,0,1,6.941-.607,23.248,23.248,0,0,1,9.765,1.847,13.7,13.7,0,0,1,6.07,5.12,13.972,13.972,0,0,1,2.059,7.6,14.814,14.814,0,0,1-1.874,7.5A14.644,14.644,0,0,1,755.747,142.091Zm-12.4-7.6a5.371,5.371,0,0,0,2.059.369,8.028,8.028,0,0,0,3.22-.686,6.788,6.788,0,0,0,2.586-1.9,4.2,4.2,0,0,0,1-2.745,4.846,4.846,0,0,0-.713-2.481,5.535,5.535,0,0,0-1.927-1.953,4.983,4.983,0,0,0-2.639-.739,9.074,9.074,0,0,0-2.032.264,6.082,6.082,0,0,0-1.663.581Zm51.727,9.5v10.557l-27.869.633-1.372-40.115,27.869-.9.739,10.557-17.841.211.211,4.17,14.832-.317.528,10.557-14.726.317.264,5.014ZM813.756,155.6a21.267,21.267,0,0,1-8.6-1.874,19.759,19.759,0,0,1-7.02-4.988l7.126-7.812a12.287,12.287,0,0,0,3.985,2.982,10.745,10.745,0,0,0,4.619,1.082,6.6,6.6,0,0,0,3.431-.792,2.227,2.227,0,0,0,1.32-1.847,1.625,1.625,0,0,0-1.267-1.531,9.466,9.466,0,0,0-3.273-.475,15.989,15.989,0,0,1-7.2-1.636,13.617,13.617,0,0,1-5.278-4.513,11.143,11.143,0,0,1-1.979-6.466,11.364,11.364,0,0,1,2.059-6.651,14.091,14.091,0,0,1,5.542-4.645,17.189,17.189,0,0,1,7.6-1.689,21.391,21.391,0,0,1,8.129,1.61,20.875,20.875,0,0,1,6.967,4.619l-5.964,8.076q-4.962-3.642-9.4-3.642a7.716,7.716,0,0,0-3.378.686q-1.425.686-1.425,1.636,0,1,1.689,1.5a14.187,14.187,0,0,0,4.011.5,20.33,20.33,0,0,1,7.548,1.32,11.617,11.617,0,0,1,5.226,3.906,10.316,10.316,0,0,1,1.9,6.281,12.633,12.633,0,0,1-2.243,7.258,15.657,15.657,0,0,1-5.991,5.2A17.716,17.716,0,0,1,813.756,155.6Zm44.127-9.237-13.407-.053-3.378,8.392-10.557-4.328,17.313-35.312,10.557.106,12.4,37.476-10.557,2.534Zm-2.85-10.557-2.534-9.5-3.8,9.448Zm43.651,8.92v10.557H873.876V115.066h10.557V144.73Zm32.3-.739v10.557l-27.869.633-1.372-40.115,27.869-.9.739,10.557-17.841.211.211,4.17,14.832-.317.528,10.557-14.726.317.264,5.014Z" fill="#00547f"/>
  </g>
</svg>
